<svg xmlns="http://www.w3.org/2000/svg" viewBox="0 0 386.6666666666667 386.6666666666667" width="386.6666666666667" height="386.6666666666667"><rect width="386.6666666666667" height="386.6666666666667" fill="white"/><rect x="53.33" y="53.33" width="13.33" height="13.33" fill="black"/><rect x="66.67" y="53.33" width="13.33" height="13.33" fill="black"/><rect x="80.00" y="53.33" width="13.33" height="13.33" fill="black"/><rect x="93.33" y="53.33" width="13.33" height="13.33" fill="black"/><rect x="106.67" y="53.33" width="13.33" height="13.33" fill="black"/><rect x="120.00" y="53.33" width="13.33" height="13.33" fill="black"/><rect x="133.33" y="53.33" width="13.33" height="13.33" fill="black"/><rect x="160.00" y="53.33" width="13.33" height="13.33" fill="black"/><rect x="173.33" y="53.33" width="13.33" height="13.33" fill="black"/><rect x="240.00" y="53.33" width="13.33" height="13.33" fill="black"/><rect x="253.33" y="53.33" width="13.33" height="13.33" fill="black"/><rect x="266.67" y="53.33" width="13.33" height="13.33" fill="black"/><rect x="280.00" y="53.33" width="13.33" height="13.33" fill="black"/><rect x="293.33" y="53.33" width="13.33" height="13.33" fill="black"/><rect x="306.67" y="53.33" width="13.33" height="13.33" fill="black"/><rect x="320.00" y="53.33" width="13.33" height="13.33" fill="black"/><rect x="53.33" y="66.67" width="13.33" height="13.33" fill="black"/><rect x="133.33" y="66.67" width="13.33" height="13.33" fill="black"/><rect x="160.00" y="66.67" width="13.33" height="13.33" fill="black"/><rect x="173.33" y="66.67" width="13.33" height="13.33" fill="black"/><rect x="213.33" y="66.67" width="13.33" height="13.33" fill="black"/><rect x="240.00" y="66.67" width="13.33" height="13.33" fill="black"/><rect x="320.00" y="66.67" width="13.33" height="13.33" fill="black"/><rect x="53.33" y="80.00" width="13.33" height="13.33" fill="black"/><rect x="80.00" y="80.00" width="13.33" height="13.33" fill="black"/><rect x="93.33" y="80.00" width="13.33" height="13.33" fill="black"/><rect x="106.67" y="80.00" width="13.33" height="13.33" fill="black"/><rect x="133.33" y="80.00" width="13.33" height="13.33" fill="black"/><rect x="160.00" y="80.00" width="13.33" height="13.33" fill="black"/><rect x="186.67" y="80.00" width="13.33" height="13.33" fill="black"/><rect x="213.33" y="80.00" width="13.33" height="13.33" fill="black"/><rect x="240.00" y="80.00" width="13.33" height="13.33" fill="black"/><rect x="266.67" y="80.00" width="13.33" height="13.33" fill="black"/><rect x="280.00" y="80.00" width="13.33" height="13.33" fill="black"/><rect x="293.33" y="80.00" width="13.33" height="13.33" fill="black"/><rect x="320.00" y="80.00" width="13.33" height="13.33" fill="black"/><rect x="53.33" y="93.33" width="13.33" height="13.33" fill="black"/><rect x="80.00" y="93.33" width="13.33" height="13.33" fill="black"/><rect x="93.33" y="93.33" width="13.33" height="13.33" fill="black"/><rect x="106.67" y="93.33" width="13.33" height="13.33" fill="black"/><rect x="133.33" y="93.33" width="13.33" height="13.33" fill="black"/><rect x="160.00" y="93.33" width="13.33" height="13.33" fill="black"/><rect x="200.00" y="93.33" width="13.33" height="13.33" fill="black"/><rect x="213.33" y="93.33" width="13.33" height="13.33" fill="black"/><rect x="240.00" y="93.33" width="13.33" height="13.33" fill="black"/><rect x="266.67" y="93.33" width="13.33" height="13.33" fill="black"/><rect x="280.00" y="93.33" width="13.33" height="13.33" fill="black"/><rect x="293.33" y="93.33" width="13.33" height="13.33" fill="black"/><rect x="320.00" y="93.33" width="13.33" height="13.33" fill="black"/><rect x="53.33" y="106.67" width="13.33" height="13.33" fill="black"/><rect x="80.00" y="106.67" width="13.33" height="13.33" fill="black"/><rect x="93.33" y="106.67" width="13.33" height="13.33" fill="black"/><rect x="106.67" y="106.67" width="13.33" height="13.33" fill="black"/><rect x="133.33" y="106.67" width="13.33" height="13.33" fill="black"/><rect x="186.67" y="106.67" width="13.33" height="13.33" fill="black"/><rect x="240.00" y="106.67" width="13.33" height="13.33" fill="black"/><rect x="266.67" y="106.67" width="13.33" height="13.33" fill="black"/><rect x="280.00" y="106.67" width="13.33" height="13.33" fill="black"/><rect x="293.33" y="106.67" width="13.33" height="13.33" fill="black"/><rect x="320.00" y="106.67" width="13.33" height="13.33" fill="black"/><rect x="53.33" y="120.00" width="13.33" height="13.33" fill="black"/><rect x="133.33" y="120.00" width="13.33" height="13.33" fill="black"/><rect x="173.33" y="120.00" width="13.33" height="13.33" fill="black"/><rect x="240.00" y="120.00" width="13.33" height="13.33" fill="black"/><rect x="320.00" y="120.00" width="13.33" height="13.33" fill="black"/><rect x="53.33" y="133.33" width="13.33" height="13.33" fill="black"/><rect x="66.67" y="133.33" width="13.33" height="13.33" fill="black"/><rect x="80.00" y="133.33" width="13.33" height="13.33" fill="black"/><rect x="93.33" y="133.33" width="13.33" height="13.33" fill="black"/><rect x="106.67" y="133.33" width="13.33" height="13.33" fill="black"/><rect x="120.00" y="133.33" width="13.33" height="13.33" fill="black"/><rect x="133.33" y="133.33" width="13.33" height="13.33" fill="black"/><rect x="160.00" y="133.33" width="13.33" height="13.33" fill="black"/><rect x="186.67" y="133.33" width="13.33" height="13.33" fill="black"/><rect x="213.33" y="133.33" width="13.33" height="13.33" fill="black"/><rect x="240.00" y="133.33" width="13.33" height="13.33" fill="black"/><rect x="253.33" y="133.33" width="13.33" height="13.33" fill="black"/><rect x="266.67" y="133.33" width="13.33" height="13.33" fill="black"/><rect x="280.00" y="133.33" width="13.33" height="13.33" fill="black"/><rect x="293.33" y="133.33" width="13.33" height="13.33" fill="black"/><rect x="306.67" y="133.33" width="13.33" height="13.33" fill="black"/><rect x="320.00" y="133.33" width="13.33" height="13.33" fill="black"/><rect x="173.33" y="146.67" width="13.33" height="13.33" fill="black"/><rect x="186.67" y="146.67" width="13.33" height="13.33" fill="black"/><rect x="53.33" y="160.00" width="13.33" height="13.33" fill="black"/><rect x="80.00" y="160.00" width="13.33" height="13.33" fill="black"/><rect x="93.33" y="160.00" width="13.33" height="13.33" fill="black"/><rect x="106.67" y="160.00" width="13.33" height="13.33" fill="black"/><rect x="133.33" y="160.00" width="13.33" height="13.33" fill="black"/><rect x="160.00" y="160.00" width="13.33" height="13.33" fill="black"/><rect x="226.67" y="160.00" width="13.33" height="13.33" fill="black"/><rect x="280.00" y="160.00" width="13.33" height="13.33" fill="black"/><rect x="293.33" y="160.00" width="13.33" height="13.33" fill="black"/><rect x="306.67" y="160.00" width="13.33" height="13.33" fill="black"/><rect x="320.00" y="160.00" width="13.33" height="13.33" fill="black"/><rect x="53.33" y="173.33" width="13.33" height="13.33" fill="black"/><rect x="93.33" y="173.33" width="13.33" height="13.33" fill="black"/><rect x="146.67" y="173.33" width="13.33" height="13.33" fill="black"/><rect x="213.33" y="173.33" width="13.33" height="13.33" fill="black"/><rect x="226.67" y="173.33" width="13.33" height="13.33" fill="black"/><rect x="266.67" y="173.33" width="13.33" height="13.33" fill="black"/><rect x="280.00" y="173.33" width="13.33" height="13.33" fill="black"/><rect x="293.33" y="173.33" width="13.33" height="13.33" fill="black"/><rect x="320.00" y="173.33" width="13.33" height="13.33" fill="black"/><rect x="80.00" y="186.67" width="13.33" height="13.33" fill="black"/><rect x="120.00" y="186.67" width="13.33" height="13.33" fill="black"/><rect x="133.33" y="186.67" width="13.33" height="13.33" fill="black"/><rect x="160.00" y="186.67" width="13.33" height="13.33" fill="black"/><rect x="173.33" y="186.67" width="13.33" height="13.33" fill="black"/><rect x="186.67" y="186.67" width="13.33" height="13.33" fill="black"/><rect x="213.33" y="186.67" width="13.33" height="13.33" fill="black"/><rect x="226.67" y="186.67" width="13.33" height="13.33" fill="black"/><rect x="240.00" y="186.67" width="13.33" height="13.33" fill="black"/><rect x="253.33" y="186.67" width="13.33" height="13.33" fill="black"/><rect x="280.00" y="186.67" width="13.33" height="13.33" fill="black"/><rect x="293.33" y="186.67" width="13.33" height="13.33" fill="black"/><rect x="306.67" y="186.67" width="13.33" height="13.33" fill="black"/><rect x="320.00" y="186.67" width="13.33" height="13.33" fill="black"/><rect x="66.67" y="200.00" width="13.33" height="13.33" fill="black"/><rect x="106.67" y="200.00" width="13.33" height="13.33" fill="black"/><rect x="146.67" y="200.00" width="13.33" height="13.33" fill="black"/><rect x="160.00" y="200.00" width="13.33" height="13.33" fill="black"/><rect x="173.33" y="200.00" width="13.33" height="13.33" fill="black"/><rect x="186.67" y="200.00" width="13.33" height="13.33" fill="black"/><rect x="213.33" y="200.00" width="13.33" height="13.33" fill="black"/><rect x="226.67" y="200.00" width="13.33" height="13.33" fill="black"/><rect x="280.00" y="200.00" width="13.33" height="13.33" fill="black"/><rect x="293.33" y="200.00" width="13.33" height="13.33" fill="black"/><rect x="306.67" y="200.00" width="13.33" height="13.33" fill="black"/><rect x="320.00" y="200.00" width="13.33" height="13.33" fill="black"/><rect x="133.33" y="213.33" width="13.33" height="13.33" fill="black"/><rect x="160.00" y="213.33" width="13.33" height="13.33" fill="black"/><rect x="186.67" y="213.33" width="13.33" height="13.33" fill="black"/><rect x="200.00" y="213.33" width="13.33" height="13.33" fill="black"/><rect x="293.33" y="213.33" width="13.33" height="13.33" fill="black"/><rect x="160.00" y="226.67" width="13.33" height="13.33" fill="black"/><rect x="186.67" y="226.67" width="13.33" height="13.33" fill="black"/><rect x="226.67" y="226.67" width="13.33" height="13.33" fill="black"/><rect x="266.67" y="226.67" width="13.33" height="13.33" fill="black"/><rect x="320.00" y="226.67" width="13.33" height="13.33" fill="black"/><rect x="53.33" y="240.00" width="13.33" height="13.33" fill="black"/><rect x="66.67" y="240.00" width="13.33" height="13.33" fill="black"/><rect x="80.00" y="240.00" width="13.33" height="13.33" fill="black"/><rect x="93.33" y="240.00" width="13.33" height="13.33" fill="black"/><rect x="106.67" y="240.00" width="13.33" height="13.33" fill="black"/><rect x="120.00" y="240.00" width="13.33" height="13.33" fill="black"/><rect x="133.33" y="240.00" width="13.33" height="13.33" fill="black"/><rect x="226.67" y="240.00" width="13.33" height="13.33" fill="black"/><rect x="240.00" y="240.00" width="13.33" height="13.33" fill="black"/><rect x="266.67" y="240.00" width="13.33" height="13.33" fill="black"/><rect x="293.33" y="240.00" width="13.33" height="13.33" fill="black"/><rect x="53.33" y="253.33" width="13.33" height="13.33" fill="black"/><rect x="133.33" y="253.33" width="13.33" height="13.33" fill="black"/><rect x="200.00" y="253.33" width="13.33" height="13.33" fill="black"/><rect x="213.33" y="253.33" width="13.33" height="13.33" fill="black"/><rect x="226.67" y="253.33" width="13.33" height="13.33" fill="black"/><rect x="240.00" y="253.33" width="13.33" height="13.33" fill="black"/><rect x="266.67" y="253.33" width="13.33" height="13.33" fill="black"/><rect x="280.00" y="253.33" width="13.33" height="13.33" fill="black"/><rect x="306.67" y="253.33" width="13.33" height="13.33" fill="black"/><rect x="53.33" y="266.67" width="13.33" height="13.33" fill="black"/><rect x="80.00" y="266.67" width="13.33" height="13.33" fill="black"/><rect x="93.33" y="266.67" width="13.33" height="13.33" fill="black"/><rect x="106.67" y="266.67" width="13.33" height="13.33" fill="black"/><rect x="133.33" y="266.67" width="13.33" height="13.33" fill="black"/><rect x="160.00" y="266.67" width="13.33" height="13.33" fill="black"/><rect x="173.33" y="266.67" width="13.33" height="13.33" fill="black"/><rect x="186.67" y="266.67" width="13.33" height="13.33" fill="black"/><rect x="200.00" y="266.67" width="13.33" height="13.33" fill="black"/><rect x="240.00" y="266.67" width="13.33" height="13.33" fill="black"/><rect x="253.33" y="266.67" width="13.33" height="13.33" fill="black"/><rect x="280.00" y="266.67" width="13.33" height="13.33" fill="black"/><rect x="53.33" y="280.00" width="13.33" height="13.33" fill="black"/><rect x="80.00" y="280.00" width="13.33" height="13.33" fill="black"/><rect x="93.33" y="280.00" width="13.33" height="13.33" fill="black"/><rect x="106.67" y="280.00" width="13.33" height="13.33" fill="black"/><rect x="133.33" y="280.00" width="13.33" height="13.33" fill="black"/><rect x="160.00" y="280.00" width="13.33" height="13.33" fill="black"/><rect x="173.33" y="280.00" width="13.33" height="13.33" fill="black"/><rect x="226.67" y="280.00" width="13.33" height="13.33" fill="black"/><rect x="253.33" y="280.00" width="13.33" height="13.33" fill="black"/><rect x="280.00" y="280.00" width="13.33" height="13.33" fill="black"/><rect x="306.67" y="280.00" width="13.33" height="13.33" fill="black"/><rect x="53.33" y="293.33" width="13.33" height="13.33" fill="black"/><rect x="80.00" y="293.33" width="13.33" height="13.33" fill="black"/><rect x="93.33" y="293.33" width="13.33" height="13.33" fill="black"/><rect x="106.67" y="293.33" width="13.33" height="13.33" fill="black"/><rect x="133.33" y="293.33" width="13.33" height="13.33" fill="black"/><rect x="160.00" y="293.33" width="13.33" height="13.33" fill="black"/><rect x="200.00" y="293.33" width="13.33" height="13.33" fill="black"/><rect x="226.67" y="293.33" width="13.33" height="13.33" fill="black"/><rect x="266.67" y="293.33" width="13.33" height="13.33" fill="black"/><rect x="53.33" y="306.67" width="13.33" height="13.33" fill="black"/><rect x="133.33" y="306.67" width="13.33" height="13.33" fill="black"/><rect x="186.67" y="306.67" width="13.33" height="13.33" fill="black"/><rect x="200.00" y="306.67" width="13.33" height="13.33" fill="black"/><rect x="213.33" y="306.67" width="13.33" height="13.33" fill="black"/><rect x="240.00" y="306.67" width="13.33" height="13.33" fill="black"/><rect x="266.67" y="306.67" width="13.33" height="13.33" fill="black"/><rect x="320.00" y="306.67" width="13.33" height="13.33" fill="black"/><rect x="53.33" y="320.00" width="13.33" height="13.33" fill="black"/><rect x="66.67" y="320.00" width="13.33" height="13.33" fill="black"/><rect x="80.00" y="320.00" width="13.33" height="13.33" fill="black"/><rect x="93.33" y="320.00" width="13.33" height="13.33" fill="black"/><rect x="106.67" y="320.00" width="13.33" height="13.33" fill="black"/><rect x="120.00" y="320.00" width="13.33" height="13.33" fill="black"/><rect x="133.33" y="320.00" width="13.33" height="13.33" fill="black"/><rect x="160.00" y="320.00" width="13.33" height="13.33" fill="black"/><rect x="186.67" y="320.00" width="13.33" height="13.33" fill="black"/><rect x="200.00" y="320.00" width="13.33" height="13.33" fill="black"/><rect x="213.33" y="320.00" width="13.33" height="13.33" fill="black"/><rect x="253.33" y="320.00" width="13.33" height="13.33" fill="black"/><rect x="266.67" y="320.00" width="13.33" height="13.33" fill="black"/><rect x="293.33" y="320.00" width="13.33" height="13.33" fill="black"/></svg>